<svg width="332" height="347" viewBox="0 0 332 347" fill="none" xmlns="http://www.w3.org/2000/svg">
  <path d="M280.818 253.547a5.276 5.276 0 0 1 3.728-1.547 5.268 5.268 0 0 1 3.727 1.547l42.182 42.251a5.292 5.292 0 0 1 1.545 3.734 5.287 5.287 0 0 1-1.545 3.734l-42.182 42.251a5.267 5.267 0 0 1-7.391-.064 5.284 5.284 0 0 1-.064-7.403l33.181-33.236h-92.726a5.271 5.271 0 0 1-3.729-1.547 5.289 5.289 0 0 1 0-7.469 5.267 5.267 0 0 1 3.729-1.547h92.726l-33.181-33.236a5.284 5.284 0 0 1 0-7.468ZM63.18 198v-53.28h22.496c.518 0 1.209.025 2.072.074.888.025 1.677.099 2.368.222 3.182.493 5.784 1.542 7.807 3.145 2.047 1.603 3.552 3.626 4.514 6.068.962 2.417 1.443 5.118 1.443 8.103 0 2.985-.493 5.698-1.48 8.14a14.198 14.198 0 0 1-4.514 6.031c-2.023 1.603-4.613 2.652-7.77 3.145-.69.099-1.48.173-2.368.222-.888.049-1.579.074-2.072.074H73.244V198H63.18Zm10.064-27.454h11.988c.518 0 1.085-.025 1.702-.074a8.703 8.703 0 0 0 1.702-.296c1.357-.37 2.405-.987 3.145-1.85a7.384 7.384 0 0 0 1.517-2.923c.296-1.085.444-2.109.444-3.071 0-.962-.148-1.973-.444-3.034a7.072 7.072 0 0 0-1.517-2.923c-.74-.888-1.788-1.517-3.145-1.887a8.703 8.703 0 0 0-1.702-.296 21.625 21.625 0 0 0-1.702-.074H73.244v16.428ZM111.309 198v-53.28h17.242c.419 0 1.283.012 2.59.037a36.87 36.87 0 0 1 3.774.259c4.292.518 7.93 2.01 10.915 4.477 2.985 2.467 5.254 5.599 6.808 9.398 1.554 3.799 2.331 7.955 2.331 12.469 0 4.514-.777 8.67-2.331 12.469-1.554 3.799-3.823 6.931-6.808 9.398-2.985 2.467-6.623 3.959-10.915 4.477a36.87 36.87 0 0 1-3.774.259c-1.307.025-2.171.037-2.59.037h-17.242Zm10.212-9.472h7.03c.666 0 1.566-.012 2.701-.037a21.58 21.58 0 0 0 3.071-.333c2.319-.469 4.206-1.554 5.661-3.256 1.48-1.702 2.565-3.749 3.256-6.142a25.707 25.707 0 0 0 1.073-7.4c0-2.664-.37-5.192-1.11-7.585-.715-2.393-1.813-4.415-3.293-6.068-1.48-1.653-3.342-2.701-5.587-3.145-.913-.197-1.936-.308-3.071-.333a128.733 128.733 0 0 0-2.701-.037h-7.03v34.336ZM163.846 198v-53.28h32.56v10.064H173.91v11.544h18.056v10.064H173.91V198h-10.064Z" fill="#BDBDBD"/>
  <path fill-rule="evenodd" clip-rule="evenodd" d="M267.195 75.137c.121.195.208.336.436.336 0 .37.092.833.184 1.295.093.463.185.925.185 1.295V229h-14.028V85.093h-56.479c-4.06 0-7.014-3.33-7.014-7.03V13.69H41.713c-15.135 0-27.686 12.209-27.686 27.747v256.758c0 15.168 12.182 27.747 27.687 27.747H197V340H41.714C18.827 340 0 321.132 0 298.194V41.806C0 18.868 18.826 0 41.714 0h155.779c1.108 0 2.215.37 2.953.74.185 0 .277.092.369.185.093.092.185.185.37.185.184.185.461.37.738.555.277.185.554.37.738.555l63.493 71.403c.185.185.277.37.369.555.093.185.185.37.37.555.141.142.228.283.302.404Zm-21.713-3.733-40.975-46.246v46.246h40.975Z" fill="#BDBDBD"/>
  <path d="M254 187h14v46a7 7 0 1 1-14 0v-46ZM151 340v-14h46a7 7 0 1 1 0 14h-46Z" fill="#BDBDBD"/>
</svg>
