<svg width="268" height="340" viewBox="0 0 268 340" fill="none" xmlns="http://www.w3.org/2000/svg">
<path d="M69.18 198V144.72H91.676C92.194 144.72 92.8847 144.745 93.748 144.794C94.636 144.819 95.4253 144.893 96.116 145.016C99.298 145.509 101.9 146.558 103.923 148.161C105.97 149.764 107.475 151.787 108.437 154.229C109.399 156.646 109.88 159.347 109.88 162.332C109.88 165.317 109.387 168.03 108.4 170.472C107.438 172.889 105.933 174.9 103.886 176.503C101.863 178.106 99.2733 179.155 96.116 179.648C95.4253 179.747 94.636 179.821 93.748 179.87C92.86 179.919 92.1693 179.944 91.676 179.944H79.244V198H69.18ZM79.244 170.546H91.232C91.75 170.546 92.3173 170.521 92.934 170.472C93.5507 170.423 94.118 170.324 94.636 170.176C95.9927 169.806 97.041 169.189 97.781 168.326C98.521 167.438 99.0267 166.464 99.298 165.403C99.594 164.318 99.742 163.294 99.742 162.332C99.742 161.37 99.594 160.359 99.298 159.298C99.0267 158.213 98.521 157.238 97.781 156.375C97.041 155.487 95.9927 154.858 94.636 154.488C94.118 154.34 93.5507 154.241 92.934 154.192C92.3173 154.143 91.75 154.118 91.232 154.118H79.244V170.546ZM117.309 198V144.72H134.551C134.97 144.72 135.834 144.732 137.141 144.757C138.448 144.782 139.706 144.868 140.915 145.016C145.207 145.534 148.845 147.026 151.83 149.493C154.815 151.96 157.084 155.092 158.638 158.891C160.192 162.69 160.969 166.846 160.969 171.36C160.969 175.874 160.192 180.03 158.638 183.829C157.084 187.628 154.815 190.76 151.83 193.227C148.845 195.694 145.207 197.186 140.915 197.704C139.706 197.852 138.448 197.938 137.141 197.963C135.834 197.988 134.97 198 134.551 198H117.309ZM127.521 188.528H134.551C135.217 188.528 136.117 188.516 137.252 188.491C138.387 188.442 139.41 188.331 140.323 188.158C142.642 187.689 144.529 186.604 145.984 184.902C147.464 183.2 148.549 181.153 149.24 178.76C149.955 176.367 150.313 173.901 150.313 171.36C150.313 168.696 149.943 166.168 149.203 163.775C148.488 161.382 147.39 159.36 145.91 157.707C144.43 156.054 142.568 155.006 140.323 154.562C139.41 154.365 138.387 154.254 137.252 154.229C136.117 154.204 135.217 154.192 134.551 154.192H127.521V188.528ZM169.846 198V144.72H202.406V154.784H179.91V166.328H197.966V176.392H179.91V198H169.846Z" fill="#0088d1"/>
<path d="M267.631 75.4733C267.262 75.4733 267.262 75.1034 266.893 74.7334C266.523 74.3634 266.523 73.9935 266.154 73.6235L202.661 2.2198C202.292 1.84984 201.554 1.47987 201.185 1.1099C200.815 1.1099 200.815 0.739935 200.446 0.739935C199.708 0.369967 198.601 0 197.493 0H41.7135C18.8265 0 0 18.8683 0 41.8063V298.194C0 321.132 18.8265 340 41.7135 340H226.286C249.174 340 268 321.132 268 298.194V78.0631C268 77.3232 267.631 76.2133 267.631 75.4733ZM204.507 25.1578L245.482 71.4037H204.507V25.1578ZM253.972 297.824C253.972 313.362 241.791 325.941 226.286 325.941H41.7135C26.2094 325.941 14.0275 313.362 14.0275 298.194V41.4363C14.0275 25.8977 26.5785 13.6888 41.7135 13.6888H190.479V78.0631C190.479 81.7628 193.433 85.0925 197.493 85.0925H253.972V297.824Z" fill="#0088d1"/>
<path d="M254 187H268V233C268 236.866 264.866 240 261 240V240C257.134 240 254 236.866 254 233V187Z" fill="#0088d1"/>
<path d="M151 340V326H197C200.866 326 204 329.134 204 333V333C204 336.866 200.866 340 197 340H151Z" fill="#0088d1"/>
</svg>
